<svg width="20" height="20" viewBox="0 0 20 20" fill="none" xmlns="http://www.w3.org/2000/svg">
<path d="M11.1049 10.0008L19.7712 1.33445C20.0763 1.02934 20.0763 0.534648 19.7712 0.22957C19.4661 -0.0755078 18.9714 -0.0755468 18.6663 0.22957L10 8.89589L1.33372 0.22957C1.0286 -0.0755468 0.533916 -0.0755468 0.228838 0.22957C-0.0762402 0.534687 -0.0762793 1.02937 0.228838 1.33445L8.89512 10.0007L0.228838 18.6671C-0.0762793 18.9722 -0.0762793 19.4669 0.228838 19.7719C0.381377 19.9245 0.581338 20.0007 0.781298 20.0007C0.981259 20.0007 1.18118 19.9245 1.33376 19.7719L10 11.1057L18.6663 19.7719C18.8188 19.9245 19.0188 20.0007 19.2188 20.0007C19.4187 20.0007 19.6186 19.9245 19.7712 19.7719C20.0763 19.4668 20.0763 18.9721 19.7712 18.6671L11.1049 10.0008Z" fill="#282D4C"/>
</svg>
