<svg width="15" height="20" viewBox="0 0 15 20" fill="none" xmlns="http://www.w3.org/2000/svg">
<path d="M7.32986 0C3.28812 0 0 3.28812 0 7.32986C0 9.18655 1.16989 11.8098 3.47733 15.127C5.16388 17.5517 6.82266 19.4281 6.89255 19.5068L7.32986 20L7.76733 19.5068C7.83707 19.4281 9.49585 17.5517 11.1826 15.127C13.4898 11.8098 14.6599 9.18655 14.6599 7.32986C14.6599 3.28812 11.3716 0 7.32986 0ZM10.229 14.4498C9.08905 16.0898 7.93686 17.5012 7.32986 18.2213C6.7244 17.5032 5.57648 16.0971 4.43726 14.4592C2.29935 11.3858 1.16928 8.92044 1.16928 7.32986C1.16928 3.93295 3.93295 1.16928 7.32986 1.16928C10.7269 1.16928 13.4904 3.93295 13.4904 7.32986C13.4904 8.91876 12.3627 11.3808 10.229 14.4498Z" fill="#60829D"/>
<path d="M7.32986 2.70905C4.94446 2.70905 3.00385 4.64966 3.00385 7.03506C3.00385 9.42047 4.94446 11.3612 7.32986 11.3612C9.71542 11.3612 11.656 9.42047 11.656 7.03506C11.656 4.64966 9.71542 2.70905 7.32986 2.70905ZM7.32986 10.192C5.58929 10.192 4.17313 8.77579 4.17313 7.03506C4.17313 5.29449 5.58929 3.87833 7.32986 3.87833C9.07059 3.87833 10.4868 5.29449 10.4868 7.03506C10.4868 8.77579 9.07059 10.192 7.32986 10.192Z" fill="#60829D"/>
</svg>
